<svg width="20" height="22" fill="none" xmlns="http://www.w3.org/2000/svg"><path fill-rule="evenodd" clip-rule="evenodd" d="M13.085 18.193a2.983 2.983 0 0 1-5.924 0H2.054a.876.876 0 0 1-.878-.876v-1.054c0-1.065.865-1.93 1.93-1.93a.176.176 0 0 0 .175-.176v-4.21a6.844 6.844 0 0 1 4.737-6.512v-.33a2.104 2.104 0 1 1 4.21 0v.33a6.845 6.845 0 0 1 4.737 6.512v4.21c0 .1.078.176.175.176 1.064 0 1.93.865 1.93 1.93v1.054a.879.879 0 0 1-.878.876h-5.107zm-4.86 0a1.93 1.93 0 0 0 3.796 0H8.225zm8.915-2.807a.88.88 0 0 1 .878.877v.877H2.228v-.877c0-.483.394-.877.878-.877a1.23 1.23 0 0 0 1.228-1.229v-4.21A5.79 5.79 0 0 1 8.675 4.34l.396-.101V3.106a1.051 1.051 0 1 1 2.105 0v1.133l.395.101a5.791 5.791 0 0 1 4.342 5.607v4.21c0 .68.548 1.229 1.227 1.229z" fill="#fff"/><path d="M13.085 18.193v-.5h-.445l-.051.442.496.058zm-5.924 0l.497-.058-.052-.442H7.16v.5zm.857-14.758l.153.476.347-.112v-.364h-.5zm4.21 0h-.5V3.8l.347.112.153-.476zM8.225 18.193v-.5h-.6l.108.59.492-.09zm3.796 0l.492.09.108-.59h-.6v.5zm5.997-1.053v.5h.5v-.5h-.5zm-15.79 0h-.5v.5h.5v-.5zm6.447-12.8l-.124-.484.124.484zm.396-.101l.124.484.376-.097V4.24h-.5zm2.105 0h-.5v.387l.375.097.125-.484zm.395.101l-.125.484.125-.484zm-1.448 16.985a3.483 3.483 0 0 0 3.459-3.074l-.993-.116a2.483 2.483 0 0 1-2.466 2.19v1zM6.665 18.25a3.483 3.483 0 0 0 3.458 3.074v-1a2.483 2.483 0 0 1-2.465-2.19l-.993.116zm-4.611.442H7.16v-1H2.054v1zM.676 17.317c0 .762.617 1.376 1.378 1.376v-1a.376.376 0 0 1-.378-.376h-1zm0-1.054v1.054h1v-1.054h-1zm2.43-2.43a2.431 2.431 0 0 0-2.43 2.43h1c0-.788.64-1.43 1.43-1.43v-1zm-.325.324c0-.176.142-.324.325-.324v1a.676.676 0 0 0 .675-.676h-1zm0-4.21v4.21h1v-4.21h-1zM7.864 2.96a7.344 7.344 0 0 0-5.083 6.988h1a6.344 6.344 0 0 1 4.39-6.036l-.307-.952zm-.346.147v.33h1v-.33h-1zM10.123.5a2.607 2.607 0 0 0-2.605 2.606h1c0-.887.72-1.606 1.605-1.606v-1zm2.605 2.606A2.604 2.604 0 0 0 10.123.5v1c.887 0 1.605.717 1.605 1.606h1zm0 .33v-.33h-1v.33h1zm4.737 6.511c0-3.22-2.09-6.022-5.083-6.988l-.307.952a6.345 6.345 0 0 1 4.39 6.036h1zm0 4.21v-4.21h-1v4.21h1zm-.325-.324c.181 0 .325.15.325.324h-1c0 .373.299.676.675.676v-1zm2.43 2.43c0-1.341-1.09-2.43-2.43-2.43v1c.788 0 1.43.642 1.43 1.43h1zm0 1.054v-1.054h-1v1.054h1zm-1.378 1.376c.76 0 1.378-.617 1.378-1.376h-1a.379.379 0 0 1-.378.376v1zm-5.107 0h5.107v-1h-5.107v1zm-2.962.579a1.43 1.43 0 0 1-1.406-1.17l-.984.181a2.43 2.43 0 0 0 2.39 1.989v-1zm1.406-1.17a1.43 1.43 0 0 1-1.406 1.17v1a2.43 2.43 0 0 0 2.39-1.989l-.984-.18zm-3.304.591h3.796v-1H8.225v1zm10.293-2.43c0-.76-.62-1.377-1.378-1.377v1a.38.38 0 0 1 .378.377h1zm0 .877v-.877h-1v.877h1zm-16.29.5h15.79v-1H2.228v1zm-.5-1.377v.877h1v-.877h-1zm1.378-1.377c-.76 0-1.378.617-1.378 1.377h1c0-.207.17-.377.378-.377v-1zm.728-.729a.729.729 0 0 1-.728.729v1a1.73 1.73 0 0 0 1.728-1.729h-1zm0-4.21v4.21h1v-4.21h-1zM8.55 3.856a6.29 6.29 0 0 0-4.717 6.091h1A5.29 5.29 0 0 1 8.8 4.824l-.25-.968zm.395-.102l-.395.102.249.968.395-.101-.25-.969zm-.375-.648v1.133h1V3.106h-1zm1.552-1.553c-.856 0-1.552.696-1.552 1.553h1c0-.305.248-.553.552-.553v-1zm1.553 1.553c0-.86-.695-1.553-1.553-1.553v1c.306 0 .553.246.553.553h1zm0 1.133V3.106h-1v1.133h1zm.02-.383l-.396-.102-.249.969.395.101.25-.968zm4.717 6.091a6.291 6.291 0 0 0-4.718-6.091l-.249.968a5.291 5.291 0 0 1 3.967 5.123h1zm0 4.21v-4.21h-1v4.21h1zm.727.729a.727.727 0 0 1-.727-.729h-1c0 .956.772 1.729 1.727 1.729v-1z" fill="#fff"/></svg>