<svg width="33px" height="44px" viewBox="0 0 33 44" version="1.1" xmlns="http://www.w3.org/2000/svg" xmlns:xlink="http://www.w3.org/1999/xlink">
    <!-- Generator: Sketch 47.1 (45422) - http://www.bohemiancoding.com/sketch -->
    <title>Fill 1</title>
    <desc>Created with Sketch.</desc>
    <defs></defs>
    <g id="Final-Version" stroke="none" stroke-width="1" fill="none" fill-rule="evenodd">
        <g id="PDP-Desktop-Copy-2" transform="translate(-727.000000, -289.000000)" fill="#B3B3B3">
            <path d="M743.100161,318.733101 C737.312753,313.31257 731.525345,307.89204 731.525345,302.473245 C731.525345,299.480155 734.122145,297.052715 737.312753,297.052715 C740.216206,297.052715 741.65907,298.407847 743.100161,301.118112 C744.543025,298.407847 746.003614,297.052715 748.887569,297.052715 C752.078177,297.052715 754.674977,299.480155 754.674977,302.473245 C754.674977,307.89204 748.887569,313.31257 743.100161,318.733101 M755.360958,289 L730.54512,289 C728.595304,289 727,290.561612 727,292.47025 L727,331.57129 C727,332.785877 728.418048,333.479927 729.481584,332.612365 L742.775783,324.158836 C742.953039,323.985324 743.130295,323.985324 743.307551,324.158836 L756.60175,332.612365 C757.488029,333.479927 759.083333,332.785877 759.083333,331.57129 L759.083333,292.47025 C758.906077,290.561612 757.310773,289 755.360958,289" id="Fill-1"></path>
        </g>
    </g>
</svg>